<svg width="1920" height="1080" viewBox="0 0 1920 1080" xmlns="http://www.w3.org/2000/svg" preserveAspectRatio="xMidYMid slice"><defs><linearGradient id="lineGrad" x1="0%" y1="0%" x2="100%" y2="100%"><stop offset="0%" style="stop-color:#6366f1;stop-opacity:0.3" /><stop offset="50%" style="stop-color:#d946ef;stop-opacity:0.1" /><stop offset="100%" style="stop-color:#06b6d4;stop-opacity:0.3" /></linearGradient><filter id="vibrantGlow" x="-50%" y="-50%" width="200%" height="200%"><feGaussianBlur stdDeviation="5" result="blur"/><feComposite in="SourceGraphic" in2="blur" operator="over"/></filter></defs><rect width="100%" height="100%" fill="transparent"/><line x1="216" y1="388" x2="236" y2="112" stroke="url(#lineGrad)" stroke-width="1.5" opacity="0.09626461727619576" /><line x1="216" y1="388" x2="220" y2="73" stroke="url(#lineGrad)" stroke-width="1.5" opacity="0.07498589122129343" /><line x1="216" y1="388" x2="278" y2="539" stroke="url(#lineGrad)" stroke-width="1.5" opacity="0.15931502091250854" /><line x1="216" y1="388" x2="200" y2="654" stroke="url(#lineGrad)" stroke-width="1.5" opacity="0.10195512859062869" /><circle cx="216" cy="388" r="4" fill="#06b6d4" filter="url(#vibrantGlow)" opacity="0.6" /><line x1="1157" y1="944" x2="1393" y2="760" stroke="url(#lineGrad)" stroke-width="1.5" opacity="0.08374866565095032" /><line x1="1157" y1="944" x2="727" y2="933" stroke="url(#lineGrad)" stroke-width="1.5" opacity="0.011032958520259012" /><line x1="1157" y1="944" x2="1408" y2="733" stroke="url(#lineGrad)" stroke-width="1.5" opacity="0.06783029211985928" /><line x1="1157" y1="944" x2="1484" y2="977" stroke="url(#lineGrad)" stroke-width="1.5" opacity="0.0674106002833437" /><circle cx="1157" cy="944" r="4" fill="#6366f1" filter="url(#vibrantGlow)" opacity="0.6" /><line x1="1545" y1="541" x2="1393" y2="760" stroke="url(#lineGrad)" stroke-width="1.5" opacity="0.10189989204828837" /><line x1="1545" y1="541" x2="1792" y2="185" stroke="url(#lineGrad)" stroke-width="1.5" opacity="0.0092802715722681" /><line x1="1545" y1="541" x2="1408" y2="733" stroke="url(#lineGrad)" stroke-width="1.5" opacity="0.11896306241236526" /><line x1="1545" y1="541" x2="1493" y2="533" stroke="url(#lineGrad)" stroke-width="1.5" opacity="0.22077123013785355" /><line x1="1545" y1="541" x2="1632" y2="335" stroke="url(#lineGrad)" stroke-width="1.5" opacity="0.12576779010534894" /><line x1="1545" y1="541" x2="1484" y2="977" stroke="url(#lineGrad)" stroke-width="1.5" opacity="0.0054185989728673944" /><circle cx="1545" cy="541" r="4" fill="#d946ef" filter="url(#vibrantGlow)" opacity="0.6" /><line x1="1018" y1="437" x2="891" y2="384" stroke="url(#lineGrad)" stroke-width="1.5" opacity="0.1735469966031742" /><line x1="1018" y1="437" x2="1105" y2="77" stroke="url(#lineGrad)" stroke-width="1.5" opacity="0.0442425916009071" /><line x1="1018" y1="437" x2="980" y2="478" stroke="url(#lineGrad)" stroke-width="1.5" opacity="0.21894350031250293" /><line x1="1018" y1="437" x2="944" y2="246" stroke="url(#lineGrad)" stroke-width="1.5" opacity="0.13620328933565484" /><line x1="1018" y1="437" x2="1079" y2="331" stroke="url(#lineGrad)" stroke-width="1.5" opacity="0.1820562142305026" /><line x1="1018" y1="437" x2="1107" y2="378" stroke="url(#lineGrad)" stroke-width="1.5" opacity="0.19067769557351016" /><circle cx="1018" cy="437" r="4" fill="#06b6d4" filter="url(#vibrantGlow)" opacity="0.6" /><line x1="1393" y1="760" x2="1408" y2="733" stroke="url(#lineGrad)" stroke-width="1.5" opacity="0.23284061643168832" /><line x1="1393" y1="760" x2="1493" y2="533" stroke="url(#lineGrad)" stroke-width="1.5" opacity="0.11219422327505485" /><line x1="1393" y1="760" x2="1484" y2="977" stroke="url(#lineGrad)" stroke-width="1.5" opacity="0.11927316200244303" /><circle cx="1393" cy="760" r="4" fill="#6366f1" filter="url(#vibrantGlow)" opacity="0.6" /><line x1="891" y1="384" x2="1105" y2="77" stroke="url(#lineGrad)" stroke-width="1.5" opacity="0.04209674020809881" /><line x1="891" y1="384" x2="980" y2="478" stroke="url(#lineGrad)" stroke-width="1.5" opacity="0.1780839824500347" /><line x1="891" y1="384" x2="709" y2="787" stroke="url(#lineGrad)" stroke-width="1.5" opacity="0.004338258253295202" /><line x1="891" y1="384" x2="944" y2="246" stroke="url(#lineGrad)" stroke-width="1.5" opacity="0.16787355428109801" /><line x1="891" y1="384" x2="1079" y2="331" stroke="url(#lineGrad)" stroke-width="1.5" opacity="0.14148448367191624" /><line x1="891" y1="384" x2="1107" y2="378" stroke="url(#lineGrad)" stroke-width="1.5" opacity="0.12995371263087263" /><circle cx="891" cy="384" r="4" fill="#06b6d4" filter="url(#vibrantGlow)" opacity="0.6" /><line x1="1105" y1="77" x2="1469" y2="95" stroke="url(#lineGrad)" stroke-width="1.5" opacity="0.047530676001291905" /><line x1="1105" y1="77" x2="980" y2="478" stroke="url(#lineGrad)" stroke-width="1.5" opacity="0.0166494715330551" /><line x1="1105" y1="77" x2="944" y2="246" stroke="url(#lineGrad)" stroke-width="1.5" opacity="0.12032566908302386" /><line x1="1105" y1="77" x2="1079" y2="331" stroke="url(#lineGrad)" stroke-width="1.5" opacity="0.10815153277415723" /><line x1="1105" y1="77" x2="1107" y2="378" stroke="url(#lineGrad)" stroke-width="1.5" opacity="0.08277408641948011" /><circle cx="1105" cy="77" r="4" fill="#06b6d4" filter="url(#vibrantGlow)" opacity="0.6" /><line x1="236" y1="112" x2="220" y2="73" stroke="url(#lineGrad)" stroke-width="1.5" opacity="0.22658084565738001" /><line x1="236" y1="112" x2="278" y2="539" stroke="url(#lineGrad)" stroke-width="1.5" opacity="0.011632999010991824" /><circle cx="236" cy="112" r="4" fill="#06b6d4" filter="url(#vibrantGlow)" opacity="0.6" /><line x1="418" y1="1009" x2="727" y2="933" stroke="url(#lineGrad)" stroke-width="1.5" opacity="0.07321719400963464" /><line x1="418" y1="1009" x2="709" y2="787" stroke="url(#lineGrad)" stroke-width="1.5" opacity="0.04665983618030051" /><line x1="418" y1="1009" x2="319" y2="980" stroke="url(#lineGrad)" stroke-width="1.5" opacity="0.19268885011418313" /><line x1="418" y1="1009" x2="200" y2="654" stroke="url(#lineGrad)" stroke-width="1.5" opacity="0.018559929630067057" /><circle cx="418" cy="1009" r="4" fill="#06b6d4" filter="url(#vibrantGlow)" opacity="0.6" /><line x1="727" y1="933" x2="709" y2="787" stroke="url(#lineGrad)" stroke-width="1.5" opacity="0.16827477534029647" /><line x1="727" y1="933" x2="319" y2="980" stroke="url(#lineGrad)" stroke-width="1.5" opacity="0.021834341100080173" /><circle cx="727" cy="933" r="4" fill="#06b6d4" filter="url(#vibrantGlow)" opacity="0.6" /><line x1="1469" y1="95" x2="1792" y2="185" stroke="url(#lineGrad)" stroke-width="1.5" opacity="0.06371981146140282" /><line x1="1469" y1="95" x2="1493" y2="533" stroke="url(#lineGrad)" stroke-width="1.5" opacity="0.006301643647543487" /><line x1="1469" y1="95" x2="1632" y2="335" stroke="url(#lineGrad)" stroke-width="1.5" opacity="0.08882281048562396" /><circle cx="1469" cy="95" r="4" fill="#d946ef" filter="url(#vibrantGlow)" opacity="0.6" /><circle cx="220" cy="73" r="4" fill="#d946ef" filter="url(#vibrantGlow)" opacity="0.6" /><line x1="1792" y1="185" x2="1632" y2="335" stroke="url(#lineGrad)" stroke-width="1.5" opacity="0.1281571544474372" /><circle cx="1792" cy="185" r="4" fill="#d946ef" filter="url(#vibrantGlow)" opacity="0.6" /><line x1="1408" y1="733" x2="1493" y2="533" stroke="url(#lineGrad)" stroke-width="1.5" opacity="0.1292704788216626" /><line x1="1408" y1="733" x2="1484" y2="977" stroke="url(#lineGrad)" stroke-width="1.5" opacity="0.10802104137810412" /><circle cx="1408" cy="733" r="4" fill="#d946ef" filter="url(#vibrantGlow)" opacity="0.6" /><line x1="980" y1="478" x2="709" y2="787" stroke="url(#lineGrad)" stroke-width="1.5" opacity="0.02166599080932685" /><line x1="980" y1="478" x2="944" y2="246" stroke="url(#lineGrad)" stroke-width="1.5" opacity="0.11956861697040722" /><line x1="980" y1="478" x2="1079" y2="331" stroke="url(#lineGrad)" stroke-width="1.5" opacity="0.15153963008172044" /><line x1="980" y1="478" x2="1107" y2="378" stroke="url(#lineGrad)" stroke-width="1.5" opacity="0.16019740442036484" /><circle cx="980" cy="478" r="4" fill="#d946ef" filter="url(#vibrantGlow)" opacity="0.6" /><line x1="1493" y1="533" x2="1632" y2="335" stroke="url(#lineGrad)" stroke-width="1.5" opacity="0.1156003288510784" /><line x1="1493" y1="533" x2="1484" y2="977" stroke="url(#lineGrad)" stroke-width="1.5" opacity="0.00328266286204279" /><line x1="1493" y1="533" x2="1107" y2="378" stroke="url(#lineGrad)" stroke-width="1.5" opacity="0.01891226079716704" /><circle cx="1493" cy="533" r="4" fill="#d946ef" filter="url(#vibrantGlow)" opacity="0.6" /><line x1="709" y1="787" x2="319" y2="980" stroke="url(#lineGrad)" stroke-width="1.5" opacity="0.008254163670362136" /><circle cx="709" cy="787" r="4" fill="#d946ef" filter="url(#vibrantGlow)" opacity="0.6" /><circle cx="1632" cy="335" r="4" fill="#6366f1" filter="url(#vibrantGlow)" opacity="0.6" /><line x1="944" y1="246" x2="1079" y2="331" stroke="url(#lineGrad)" stroke-width="1.5" opacity="0.161371910369201" /><line x1="944" y1="246" x2="1107" y2="378" stroke="url(#lineGrad)" stroke-width="1.5" opacity="0.13347495368053663" /><circle cx="944" cy="246" r="4" fill="#6366f1" filter="url(#vibrantGlow)" opacity="0.6" /><line x1="1079" y1="331" x2="1107" y2="378" stroke="url(#lineGrad)" stroke-width="1.5" opacity="0.2196064902964668" /><circle cx="1079" cy="331" r="4" fill="#06b6d4" filter="url(#vibrantGlow)" opacity="0.6" /><line x1="278" y1="539" x2="319" y2="980" stroke="url(#lineGrad)" stroke-width="1.5" opacity="0.003943447231141928" /><line x1="278" y1="539" x2="200" y2="654" stroke="url(#lineGrad)" stroke-width="1.5" opacity="0.17280176231781863" /><circle cx="278" cy="539" r="4" fill="#06b6d4" filter="url(#vibrantGlow)" opacity="0.6" /><circle cx="1484" cy="977" r="4" fill="#d946ef" filter="url(#vibrantGlow)" opacity="0.6" /><line x1="319" y1="980" x2="200" y2="654" stroke="url(#lineGrad)" stroke-width="1.5" opacity="0.057199809179952016" /><circle cx="319" cy="980" r="4" fill="#d946ef" filter="url(#vibrantGlow)" opacity="0.6" /><circle cx="1107" cy="378" r="4" fill="#6366f1" filter="url(#vibrantGlow)" opacity="0.6" /><circle cx="200" cy="654" r="4" fill="#06b6d4" filter="url(#vibrantGlow)" opacity="0.6" /><circle cx="1588" cy="605" r="1.2551376768465996" fill="#06b6d4" opacity="0.2798016107456738" /><circle cx="1290" cy="834" r="0.9710446213668324" fill="white" opacity="0.20491944787933913" /><circle cx="1068" cy="399" r="0.5447003370169881" fill="white" opacity="0.25342686360229966" /><circle cx="1291" cy="1046" r="1.0607278814830228" fill="#06b6d4" opacity="0.20680978162840252" /><circle cx="939" cy="867" r="0.6251778629073533" fill="white" opacity="0.13996976868703068" /><circle cx="457" cy="349" r="1.4118701227820556" fill="#06b6d4" opacity="0.260350113941114" /><circle cx="1189" cy="1002" r="0.671953653044751" fill="white" opacity="0.2688108005723495" /><circle cx="1612" cy="302" r="0.6217021205636043" fill="white" opacity="0.2102595435819789" /><circle cx="1718" cy="260" r="1.366362488530846" fill="#6366f1" opacity="0.15779644463666226" /><circle cx="419" cy="41" r="1.2622645187858996" fill="#6366f1" opacity="0.2079171342500736" /><circle cx="303" cy="614" r="1.0006214957206931" fill="white" opacity="0.22196904065585538" /><circle cx="605" cy="1030" r="1.0490492992099685" fill="#6366f1" opacity="0.28595622450359" /><circle cx="568" cy="717" r="0.6906931208641249" fill="white" opacity="0.12393702452797875" /><circle cx="61" cy="826" r="0.6349086218184078" fill="#6366f1" opacity="0.18814071435639113" /><circle cx="1655" cy="1005" r="1.3433415648712417" fill="white" opacity="0.1512589939869762" /><circle cx="111" cy="903" r="0.5779560872620552" fill="#6366f1" opacity="0.23794831573305275" /><circle cx="881" cy="133" r="0.7070616357362758" fill="#06b6d4" opacity="0.2710409977974834" /><circle cx="295" cy="650" r="1.4772375385308465" fill="#06b6d4" opacity="0.2878483015320799" /><circle cx="1346" cy="350" r="0.8973020137184934" fill="#06b6d4" opacity="0.15025619574834487" /><circle cx="174" cy="953" r="1.292553065902372" fill="#06b6d4" opacity="0.29533575249624777" /><circle cx="1162" cy="176" r="0.6115498779474282" fill="#06b6d4" opacity="0.18535541659265353" /><circle cx="70" cy="955" r="0.8579454482067465" fill="#06b6d4" opacity="0.2110358607936666" /><circle cx="181" cy="838" r="1.0947070814592939" fill="#06b6d4" opacity="0.2773974648682401" /><circle cx="757" cy="451" r="0.5142289451496499" fill="#6366f1" opacity="0.21487147666313294" /><circle cx="390" cy="946" r="1.0744698139177498" fill="#06b6d4" opacity="0.21870850579267337" /><circle cx="434" cy="865" r="1.2569313329055953" fill="#06b6d4" opacity="0.2574122956031828" /><circle cx="1559" cy="1028" r="0.5604453411622691" fill="white" opacity="0.17141822916579016" /><circle cx="1465" cy="277" r="0.5147686091362066" fill="#6366f1" opacity="0.27594948335304004" /><circle cx="718" cy="373" r="0.8294865182339575" fill="white" opacity="0.21086379358433782" /><circle cx="525" cy="44" r="1.0436946166345171" fill="#6366f1" opacity="0.23750756668277564" /><circle cx="712" cy="611" r="1.1486937289053971" fill="#6366f1" opacity="0.20202874337195592" /><circle cx="1582" cy="535" r="1.066543370170552" fill="#06b6d4" opacity="0.1442686412118304" /><circle cx="285" cy="41" r="0.7299273451993084" fill="#06b6d4" opacity="0.16854393740474" /><circle cx="1616" cy="500" r="0.8566322026844495" fill="white" opacity="0.11428466996883313" /><circle cx="528" cy="776" r="1.3058708459569681" fill="#6366f1" opacity="0.23758506503866186" /><circle cx="1847" cy="576" r="1.4917780866839245" fill="#6366f1" opacity="0.23364959418168862" /><circle cx="10" cy="658" r="0.8959348389946508" fill="white" opacity="0.15940803372018747" /><circle cx="756" cy="653" r="0.667258501518878" fill="#06b6d4" opacity="0.24653973778485955" /><circle cx="1239" cy="102" r="0.7863612031859835" fill="#06b6d4" opacity="0.12990632974573" /><circle cx="1006" cy="822" r="0.7032131353704236" fill="#06b6d4" opacity="0.11958893066797326" /><circle cx="1063" cy="62" r="1.4536931374894015" fill="white" opacity="0.28143622121962014" /><circle cx="192" cy="445" r="1.4361436438261541" fill="#6366f1" opacity="0.23327874406830795" /><circle cx="620" cy="159" r="1.0620604647092635" fill="#06b6d4" opacity="0.25978089642441266" /><circle cx="1408" cy="238" r="1.214562598026647" fill="#06b6d4" opacity="0.24630224305318923" /><circle cx="459" cy="572" r="1.2131748608414037" fill="#6366f1" opacity="0.1678044352505063" /><circle cx="1333" cy="886" r="1.4941005437767783" fill="white" opacity="0.15207562913626202" /><circle cx="731" cy="894" r="1.1210097188261048" fill="#06b6d4" opacity="0.2963164248019774" /><circle cx="1439" cy="997" r="1.1594112455935977" fill="#06b6d4" opacity="0.27332499769672575" /><circle cx="959" cy="690" r="1.1610279619272637" fill="#6366f1" opacity="0.24588509978329698" /><circle cx="1488" cy="915" r="0.6037018620818508" fill="#6366f1" opacity="0.2354521322238929" /><circle cx="682" cy="913" r="0.9979879454866547" fill="#6366f1" opacity="0.13740045104640738" /><circle cx="572" cy="818" r="0.6753441395530118" fill="white" opacity="0.22379936513694154" /><circle cx="1831" cy="818" r="0.7615479246494292" fill="white" opacity="0.16882656986273578" /><circle cx="1071" cy="635" r="0.565348021625924" fill="#06b6d4" opacity="0.2988587560357571" /><circle cx="983" cy="656" r="1.1155567189805815" fill="#06b6d4" opacity="0.20022970656858163" /><circle cx="1736" cy="91" r="0.970908040495623" fill="#6366f1" opacity="0.23930043086576686" /><circle cx="180" cy="600" r="0.6815269571712218" fill="#6366f1" opacity="0.27236549303330204" /><circle cx="105" cy="90" r="0.6205509273975639" fill="#06b6d4" opacity="0.17195536786928595" /><circle cx="1060" cy="850" r="1.3293107327064217" fill="#06b6d4" opacity="0.15455068892469123" /><circle cx="1463" cy="287" r="0.5439235327489935" fill="#6366f1" opacity="0.18145305498380931" /><circle cx="885" cy="620" r="0.6092699827282247" fill="#6366f1" opacity="0.2510380831357577" /><circle cx="159" cy="1053" r="0.7633353594963448" fill="white" opacity="0.2064527461628043" /><circle cx="1197" cy="324" r="0.5200988290572205" fill="white" opacity="0.2193531178077297" /><circle cx="594" cy="755" r="1.161359787872679" fill="#6366f1" opacity="0.17978351186505354" /><circle cx="1616" cy="940" r="1.1599937741711364" fill="white" opacity="0.19135905067676" /><circle cx="3" cy="108" r="1.0767142292091898" fill="#6366f1" opacity="0.16574390645466977" /><circle cx="382" cy="604" r="1.4709818452009533" fill="white" opacity="0.19349662827857383" /><circle cx="1069" cy="1015" r="1.3051239786744286" fill="white" opacity="0.10002503278910312" /><circle cx="1916" cy="866" r="1.433645798739828" fill="white" opacity="0.23918760888810653" /><circle cx="421" cy="784" r="1.3465509347508742" fill="white" opacity="0.14509066154270528" /><circle cx="845" cy="445" r="1.3509970882539863" fill="white" opacity="0.11308498409888364" /><circle cx="1654" cy="833" r="0.9913732938737225" fill="#06b6d4" opacity="0.2853215664386616" /><circle cx="444" cy="294" r="0.571383276201081" fill="#06b6d4" opacity="0.12739302221084894" /><circle cx="380" cy="7" r="0.7627869982487898" fill="#06b6d4" opacity="0.2852346039549999" /><circle cx="610" cy="129" r="0.5343865022938181" fill="#6366f1" opacity="0.27907025320388634" /><circle cx="1686" cy="72" r="1.4264426391797111" fill="#6366f1" opacity="0.2603152919048426" /><circle cx="686" cy="949" r="0.9260771793012882" fill="#6366f1" opacity="0.19764924602256262" /><circle cx="39" cy="188" r="1.0951975063620962" fill="white" opacity="0.12497876991221829" /><circle cx="1505" cy="476" r="0.7298047821335506" fill="#06b6d4" opacity="0.16359326508124225" /><circle cx="1262" cy="865" r="0.5609563849970479" fill="white" opacity="0.14848331019426303" /><circle cx="208" cy="15" r="1.0410074384517087" fill="#6366f1" opacity="0.23445565709946634" /><circle cx="778" cy="708" r="1.2171874439166162" fill="white" opacity="0.2828556258046828" /><circle cx="1381" cy="686" r="1.0646683542057098" fill="#06b6d4" opacity="0.29416800108886365" /><circle cx="973" cy="153" r="1.3274364327218318" fill="#6366f1" opacity="0.2688735760229558" /><circle cx="1115" cy="24" r="1.1115075991252465" fill="#6366f1" opacity="0.2556702076043853" /><circle cx="1817" cy="918" r="0.9883566283897013" fill="#6366f1" opacity="0.22004918908530602" /><circle cx="1654" cy="32" r="1.1310940917475163" fill="#06b6d4" opacity="0.22523221869672017" /><circle cx="1625" cy="72" r="1.4918161673476336" fill="white" opacity="0.18358057444117848" /><circle cx="745" cy="66" r="1.401782642081266" fill="#06b6d4" opacity="0.15060389479260655" /><circle cx="1620" cy="1008" r="0.5675747969679964" fill="#6366f1" opacity="0.17756377706387363" /><circle cx="259" cy="837" r="1.2553300454081482" fill="white" opacity="0.18488919168692097" /><circle cx="328" cy="18" r="0.6626736286948055" fill="#06b6d4" opacity="0.2597399903162473" /><circle cx="1907" cy="251" r="1.4485870993210443" fill="#06b6d4" opacity="0.11852679539335505" /><circle cx="1510" cy="976" r="0.8538936406691685" fill="#6366f1" opacity="0.1869747456407763" /><circle cx="650" cy="750" r="1.2486495575598475" fill="#06b6d4" opacity="0.23391031758103772" /><circle cx="670" cy="235" r="0.5344452889224474" fill="#06b6d4" opacity="0.14070199790695265" /><circle cx="419" cy="454" r="1.27501525411297" fill="#6366f1" opacity="0.24917695370605217" /><circle cx="460" cy="943" r="0.972337168378882" fill="#6366f1" opacity="0.2193826575785779" /><circle cx="459" cy="702" r="0.9278380990517486" fill="white" opacity="0.25536450929721105" /><circle cx="1285" cy="535" r="0.6279178933241206" fill="white" opacity="0.20731081560922404" /><circle cx="439" cy="233" r="0.9894853785772433" fill="white" opacity="0.11067036674016456" /><circle cx="1064" cy="1029" r="1.0064672896536835" fill="#06b6d4" opacity="0.18650143585082823" /><circle cx="299" cy="155" r="1.3694411268300395" fill="white" opacity="0.2515025711974368" /><circle cx="173" cy="664" r="0.541204689390533" fill="#6366f1" opacity="0.127752173558399" /><circle cx="1867" cy="332" r="1.2020768484739106" fill="#06b6d4" opacity="0.2630012550865755" /><circle cx="1244" cy="397" r="1.1296493751428813" fill="#6366f1" opacity="0.17232763120646027" /><circle cx="1496" cy="808" r="1.194722430754418" fill="#6366f1" opacity="0.1870853099322874" /><circle cx="399" cy="988" r="1.2180224769852306" fill="#6366f1" opacity="0.17514776758765194" /><circle cx="150" cy="943" r="1.0980049143361383" fill="#06b6d4" opacity="0.11237298706246346" /><circle cx="1696" cy="565" r="1.3392666433959737" fill="white" opacity="0.2586188512361197" /><circle cx="714" cy="160" r="1.4713196389136385" fill="#06b6d4" opacity="0.10447939679262763" /><circle cx="1073" cy="950" r="0.7994857367891879" fill="white" opacity="0.19069553713427362" /><circle cx="14" cy="606" r="1.3501624072946268" fill="white" opacity="0.29857527843001497" /><circle cx="530" cy="330" r="1.0841657037150916" fill="#6366f1" opacity="0.28014891477716075" /><circle cx="683" cy="10" r="0.8443576457321369" fill="#06b6d4" opacity="0.17207972159273724" /><circle cx="1794" cy="449" r="0.9758261719501582" fill="white" opacity="0.11305179773224161" /><circle cx="1341" cy="852" r="0.5353917218566705" fill="white" opacity="0.20676519611904842" /><circle cx="1861" cy="597" r="0.5306111910999751" fill="#06b6d4" opacity="0.24450665442724925" /><circle cx="89" cy="599" r="0.6166591005963736" fill="#06b6d4" opacity="0.19175639622088236" /><circle cx="1564" cy="887" r="1.4313831744780805" fill="#6366f1" opacity="0.1838643098099696" /><circle cx="1859" cy="405" r="0.6480899242258668" fill="white" opacity="0.20678817327740762" /><circle cx="1321" cy="445" r="0.7893030302371401" fill="#6366f1" opacity="0.15447620843781654" /><circle cx="1061" cy="890" r="0.543510798365391" fill="#06b6d4" opacity="0.1879926445973284" /><circle cx="1344" cy="604" r="1.4338245393794709" fill="#6366f1" opacity="0.1215193164040094" /><circle cx="73" cy="992" r="1.2409821861164398" fill="white" opacity="0.26712552626453484" /><circle cx="812" cy="66" r="1.0005343833970524" fill="#06b6d4" opacity="0.22916323331677677" /><circle cx="1454" cy="513" r="1.0741999954792825" fill="#6366f1" opacity="0.17872761102443702" /><circle cx="1489" cy="754" r="1.0958332900354435" fill="#06b6d4" opacity="0.16702552377065838" /><circle cx="637" cy="576" r="0.9294876339761486" fill="#6366f1" opacity="0.1385510071772087" /><circle cx="532" cy="14" r="0.8435693086248877" fill="#06b6d4" opacity="0.1747808830614895" /><circle cx="111" cy="534" r="1.1238136746954606" fill="white" opacity="0.2790834725844604" /><circle cx="1106" cy="238" r="1.4963438324913598" fill="#6366f1" opacity="0.2259934046503758" /><circle cx="786" cy="685" r="1.412091697543949" fill="#6366f1" opacity="0.25550165989054374" /><circle cx="1882" cy="670" r="0.5387384157819887" fill="#6366f1" opacity="0.23887303946462504" /><circle cx="790" cy="838" r="1.243874842280968" fill="#6366f1" opacity="0.16262052251805073" /><circle cx="714" cy="188" r="0.5164931192040104" fill="#06b6d4" opacity="0.2216859155129825" /><circle cx="13" cy="553" r="0.8923985602949333" fill="#06b6d4" opacity="0.29316192745500913" /><circle cx="1736" cy="636" r="0.6659212670489184" fill="white" opacity="0.18312566610112208" /><circle cx="1444" cy="584" r="1.4232991648812885" fill="white" opacity="0.26051109636924674" /><circle cx="1814" cy="365" r="1.0695095729007562" fill="white" opacity="0.2954884693047252" /><circle cx="1469" cy="978" r="0.9694796022245674" fill="#6366f1" opacity="0.12627494080624946" /><circle cx="1468" cy="632" r="1.3781541940087885" fill="#06b6d4" opacity="0.2867924049625582" /><circle cx="1289" cy="429" r="1.2403003467057392" fill="white" opacity="0.11220602408921004" /><circle cx="1821" cy="1055" r="1.2664985226244625" fill="#06b6d4" opacity="0.20084603879735308" /><circle cx="1091" cy="563" r="1.4582350791119973" fill="#06b6d4" opacity="0.11151729483612138" /><circle cx="1230" cy="453" r="1.4384178626806303" fill="#06b6d4" opacity="0.2330860764901395" /><circle cx="1225" cy="684" r="0.9489643626182457" fill="#6366f1" opacity="0.29901291189126245" /><circle cx="437" cy="876" r="1.337581578651233" fill="#6366f1" opacity="0.2717446997118911" /><circle cx="1881" cy="455" r="0.8914159434408818" fill="#06b6d4" opacity="0.18135753626259046" /><circle cx="1229" cy="235" r="0.9775776910826532" fill="#06b6d4" opacity="0.10915889254664489" /></svg>